<svg xmlns="http://www.w3.org/2000/svg" viewBox="0 0 1280 320" width="1280" height="320" font-family="Inter, 'PingFang SC', 'Microsoft YaHei', sans-serif">
  <rect width="1280" height="320" fill="#FDFCF8" />

  <text x="640" y="56" font-size="28" font-weight="700" text-anchor="middle" fill="#1E293B">单轮怎么跑</text>
  <text x="640" y="92" font-size="16" font-weight="400" text-anchor="middle" fill="#64748B">这一轮先评当前稿；这一轮生成的新稿，要到下一轮才会被复核。</text>

  <rect x="80" y="130" width="620" height="150" rx="12" fill="#FFFFFF" stroke="#E2E8F0" stroke-width="1.5" />
  <path d="M 80 142 A 12 12 0 0 1 92 130 L 688 130 A 12 12 0 0 1 700 142 L 700 164 L 80 164 Z" fill="#F8FAFC" />
  <line x1="80" y1="164" x2="700" y2="164" stroke="#E2E8F0" stroke-width="1.5" />
  <text x="100" y="152" font-size="13" font-weight="600" fill="#475569">当前这一轮 (Round N)</text>

  <line x1="40" y1="220" x2="94" y2="220" stroke="#CBD5E1" stroke-width="2" />
  <polygon points="92,216 98,220 92,224" fill="#CBD5E1" />

  <rect x="100" y="185" width="150" height="70" rx="8" fill="#F8FAFC" stroke="#CBD5E1" stroke-width="1.5" />
  <text x="175" y="225" font-size="14" font-weight="600" fill="#334155" text-anchor="middle">当前稿进入这一轮</text>

  <line x1="250" y1="220" x2="284" y2="220" stroke="#94A3B8" stroke-width="2" />
  <polygon points="282,216 288,220 282,224" fill="#94A3B8" />

  <rect x="290" y="185" width="180" height="70" rx="8" fill="#FFFFFF" stroke="#E2E8F0" stroke-width="1.5" />
  <text x="380" y="214" font-size="14" font-weight="600" fill="#1E293B" text-anchor="middle">judge 先复核当前稿</text>
  <text x="380" y="238" font-size="12" font-weight="400" fill="#64748B" text-anchor="middle">记下分数 / 问题 / 漂移</text>

  <line x1="470" y1="220" x2="504" y2="220" stroke="#94A3B8" stroke-width="2" />
  <polygon points="502,216 508,220 502,224" fill="#94A3B8" />

  <rect x="510" y="185" width="170" height="70" rx="8" fill="#FFFFFF" stroke="#E2E8F0" stroke-width="1.5" />
  <text x="595" y="225" font-size="14" font-weight="600" fill="#1E293B" text-anchor="middle">optimizer 生成下一稿</text>

  <rect x="740" y="130" width="460" height="150" rx="12" fill="#FAFAFA" stroke="#E2E8F0" stroke-width="1.5" stroke-dasharray="8 4" />
  <path d="M 740 142 A 12 12 0 0 1 752 130 L 1188 130 A 12 12 0 0 1 1200 142 L 1200 164 L 740 164 Z" fill="#F1F5F9" />
  <line x1="740" y1="164" x2="1200" y2="164" stroke="#E2E8F0" stroke-width="1.5" />
  <text x="760" y="152" font-size="13" font-weight="600" fill="#64748B">下一轮 (Round N+1)</text>

  <rect x="850" y="185" width="240" height="70" rx="8" fill="#ECFDF5" stroke="#10B981" stroke-width="2" />
  <text x="970" y="225" font-size="16" font-weight="700" fill="#059669" text-anchor="middle">下一轮再评刚才那一稿</text>

  <line x1="1090" y1="220" x2="1134" y2="220" stroke="#CBD5E1" stroke-width="2" stroke-dasharray="4 4" />
  <polygon points="1132,216 1138,220 1132,224" fill="#CBD5E1" />
  <text x="1170" y="224" font-size="12" fill="#94A3B8" text-anchor="middle">...继续循环</text>

  <line x1="680" y1="220" x2="844" y2="220" stroke="#10B981" stroke-width="3" stroke-dasharray="6 4" />
  <polygon points="840,215 850,220 840,225" fill="#10B981" />

  <rect x="715" y="206" width="94" height="28" rx="14" fill="#D1FAE5" stroke="#34D399" stroke-width="1" />
  <text x="762" y="225" font-size="12" font-weight="600" fill="#047857" text-anchor="middle">带着新稿进入</text>
</svg>
